Coordinates
version=1
nRows=8
nColumns=42
inDegrees=yes

Units are S.I. units (second, meters, Newtons, ...)
If the header above contains a line with 'inDegrees', this indicates whether rotational values are in degrees (yes) or radians (no).

endheader
time	pelvis_tilt	pelvis_list	pelvis_rotation	pelvis_tx	pelvis_ty	pelvis_tz	hip_flexion_r	hip_adduction_r	hip_rotation_r	knee_angle_r	knee_adduction_r	knee_angle_r_beta	ankle_angle_r	subtalar_angle_r	mtp_angle_r	hip_flexion_l	hip_adduction_l	hip_rotation_l	knee_angle_l	knee_adduction_l	knee_angle_l_beta	ankle_angle_l	subtalar_angle_l	mtp_angle_l	lumbar_extension	lumbar_bending	lumbar_rotation	arm_flex_r	arm_add_r	arm_rot_r	elbow_flex_r	pro_sup_r	wrist_flex_r	wrist_dev_r	arm_flex_l	arm_add_l	arm_rot_l	elbow_flex_l	pro_sup_l	wrist_flex_l	wrist_dev_l
      1.98000000	     15.50407291	     -1.76707760	     -1.64982570	      1.00976106	      0.86531758	     -0.19756204	     -0.58297249	      0.41530116	     -5.93001808	     61.07827162	     -5.51875889	      1.06601694	     13.48537402	    -15.79634090	     -7.50060609	    -15.85062164	     -1.08619143	     -3.55193631	      6.88581662	      6.76450897	      0.12018017	     15.21110548	     -1.73083755	     -7.50060609	    -26.76260513	      0.99743136	      5.59300082	      0.87469001	     -8.29984840	     -1.77843292	     29.77530069	     90.00000001	      0.00000000	      0.00000000	     11.52620953	     -6.25273301	     -2.86554495	     27.86762161	     90.00000001	      0.00000000	      0.00000000
      1.99000000	     15.43768677	     -1.97118848	     -1.20497334	      1.01988894	      0.86537797	     -0.19865838	      0.79920648	      0.80107795	     -5.72072521	     59.77133259	     -4.84350275	      1.04320655	     14.20180967	    -16.20633536	     -7.50056947	    -16.87142460	     -1.37062196	     -3.67588907	      6.16038599	      6.83348206	      0.10751902	     15.54472782	     -0.98942018	     -7.50056947	    -26.73475978	      1.39620995	      5.28192038	     -0.00218787	     -8.08580088	     -2.72328985	     29.41060744	     90.00000001	      0.00000000	      0.00000000	     12.60280218	     -6.69665389	     -1.28278415	     28.96931370	     90.00000001	      0.00000000	      0.00000000
      2.00000000	     15.35287112	     -2.11957878	     -0.74675224	      1.03001708	      0.86519356	     -0.19981337	      2.11160733	      1.06891113	     -5.40233839	     58.17544598	     -4.01516548	      1.01535308	     14.83618401	    -16.47047625	     -7.50053924	    -17.84817926	     -1.58895188	     -3.77999165	      5.46516253	      6.86508892	      0.09538508	     15.94591443	     -0.12007197	     -7.50053924	    -26.67888672	      1.74430299	      4.91946799	     -0.91031513	     -7.94309693	     -3.30597505	     29.15808669	     90.00000001	      0.00000000	      0.00000000	     13.73046499	     -7.01872165	     -0.37384027	     29.96061718	     90.00000001	      0.00000000	      0.00000000
      2.01000000	     15.11843459	     -2.12036821	     -0.30895500	      1.04007396	      0.86455717	     -0.20096438	      3.58124954	      1.12424443	     -5.21636341	     56.44349825	     -3.29072557	      0.98512489	     15.61014163	    -16.59836582	     -7.50052653	    -18.58819660	     -1.62599141	     -3.87391690	      4.88688719	      6.82199558	      0.08529227	     16.40633088	      0.69564733	     -7.50052653	    -26.45721225	      1.93210176	      4.49744212	     -1.84563714	     -7.82429186	     -3.56745891	     28.96820883	     90.00000001	      0.00000000	      0.00000000	     14.90519115	     -7.24164530	     -0.02713012	     30.81335120	     90.00000001	      0.00000000	      0.00000000
      2.02000000	     15.23172009	     -2.35393998	      0.15942297	      1.05035842	      0.86428448	     -0.20192215	      4.37304329	      1.48458358	     -4.72185787	     54.08169665	     -2.35203877	      0.94390367	     15.65779995	    -16.83335962	     -7.50050289	    -19.81328227	     -2.03469481	     -4.08653098	      4.18904944	      7.00676224	      0.07311271	     16.78295233	      1.66272634	     -7.50050289	    -26.59505392	      2.35131404	      4.23381116	     -2.82313817	     -7.68623004	     -4.30843400	     28.95803558	     90.00000001	      0.00000000	      0.00000000	     15.98881997	     -7.54368934	      1.01132770	     31.97497820	     90.00000001	      0.00000000	      0.00000000
      2.03000000	     15.11664909	     -2.34018995	      0.57112309	      1.06048949	      0.86342657	     -0.20278439	      5.47556839	      1.48179720	     -4.54597162	     51.74632493	     -1.61044942	      0.90314375	     16.05786464	    -16.91454911	     -7.50048774	    -20.69065129	     -2.13554788	     -4.15940402	      3.64147244	      7.08818914	      0.06355568	     17.29694276	      2.59593323	     -7.50048774	    -26.48994420	      2.48006614	      3.90164417	     -3.77865915	     -7.52210338	     -4.69068515	     28.89541333	     90.00000001	      0.00000000	      0.00000000	     17.14192006	     -7.79509517	      1.54897324	     32.96136955	     90.00000001	      0.00000000	      0.00000000
      2.04000000	     15.15472697	     -2.53431121	      0.96781886	      1.07077387	      0.86265147	     -0.20337058	      6.20990945	      1.80679655	     -4.45974381	     48.94349858	     -1.09324937	      0.85422520	     15.91691101	    -17.01242608	     -7.50045852	    -21.71860383	     -2.54185361	     -4.61629803	      3.22273266	      7.29865787	      0.05624730	     17.74744372	      3.53765106	     -7.50045852	    -26.54467157	      2.79942641	      3.70366585	     -4.72175054	     -7.33096231	     -5.39934258	     28.96775423	     90.00000001	      0.00000000	      0.00000000	     18.20731568	     -8.14102766	      2.67675164	     34.11008353	     90.00000001	      0.00000000	      0.00000000
      2.05000000	     14.99959219	     -2.38891228	      1.30536947	      1.08080015	      0.86141302	     -0.20422108	      7.19098895	      1.63390688	     -4.47033995	     46.19814605	     -0.59622408	      0.80630976	     16.09607494	    -16.84140827	     -7.50044641	    -22.47821634	     -2.43370664	     -4.74026261	      2.83030147	      7.24592593	      0.04939808	     18.25604516	      4.37108460	     -7.50044641	    -26.41242437	      2.77365175	      3.37999432	     -5.59799357	     -7.20932496	     -5.64360439	     28.95654196	     90.00000001	      0.00000000	      0.00000000	     19.34930160	     -8.28919957	      2.98763561	     35.04342518	     90.00000001	      0.00000000	      0.00000000
